<svg xmlns="http://www.w3.org/2000/svg" width="760" height="320" viewBox="0 0 760 320">
<rect x="0" y="0" width="100%" height="100%" fill="white"/>
<style>text{font-family:Arial,sans-serif;fill:#111827}.small{font-size:11px}.label{font-size:12px}.title{font-size:16px;font-weight:bold}</style>
<text x="380.0" y="22" text-anchor="middle" class="title">File size by n (log scale, MiB)</text>
<line x1="68" y1="36" x2="68" y2="278" stroke="#374151"/>
<line x1="68" y1="278" x2="742" y2="278" stroke="#374151"/>
<line x1="68" y1="286.6" x2="742" y2="286.6" stroke="#e5e7eb"/>
<text x="60" y="290.6" text-anchor="end" class="small">1e-5</text>
<line x1="68" y1="256.0" x2="742" y2="256.0" stroke="#e5e7eb"/>
<text x="60" y="260.0" text-anchor="end" class="small">1e-4</text>
<line x1="68" y1="225.3" x2="742" y2="225.3" stroke="#e5e7eb"/>
<text x="60" y="229.3" text-anchor="end" class="small">1e-3</text>
<line x1="68" y1="194.7" x2="742" y2="194.7" stroke="#e5e7eb"/>
<text x="60" y="198.7" text-anchor="end" class="small">1e-2</text>
<line x1="68" y1="164.1" x2="742" y2="164.1" stroke="#e5e7eb"/>
<text x="60" y="168.1" text-anchor="end" class="small">1e-1</text>
<line x1="68" y1="133.5" x2="742" y2="133.5" stroke="#e5e7eb"/>
<text x="60" y="137.5" text-anchor="end" class="small">1e0</text>
<line x1="68" y1="102.8" x2="742" y2="102.8" stroke="#e5e7eb"/>
<text x="60" y="106.8" text-anchor="end" class="small">1e1</text>
<line x1="68" y1="72.2" x2="742" y2="72.2" stroke="#e5e7eb"/>
<text x="60" y="76.2" text-anchor="end" class="small">1e2</text>
<line x1="68" y1="41.6" x2="742" y2="41.6" stroke="#e5e7eb"/>
<text x="60" y="45.6" text-anchor="end" class="small">1e3</text>
<line x1="68" y1="10.9" x2="742" y2="10.9" stroke="#e5e7eb"/>
<text x="60" y="14.9" text-anchor="end" class="small">1e4</text>
<line x1="68.0" y1="36" x2="68.0" y2="278" stroke="#f3f4f6"/>
<text x="68.0" y="300" text-anchor="middle" class="small">1</text>
<line x1="129.3" y1="36" x2="129.3" y2="278" stroke="#f3f4f6"/>
<text x="129.3" y="300" text-anchor="middle" class="small">2</text>
<line x1="190.5" y1="36" x2="190.5" y2="278" stroke="#f3f4f6"/>
<text x="190.5" y="300" text-anchor="middle" class="small">3</text>
<line x1="251.8" y1="36" x2="251.8" y2="278" stroke="#f3f4f6"/>
<text x="251.8" y="300" text-anchor="middle" class="small">4</text>
<line x1="313.1" y1="36" x2="313.1" y2="278" stroke="#f3f4f6"/>
<text x="313.1" y="300" text-anchor="middle" class="small">5</text>
<line x1="374.4" y1="36" x2="374.4" y2="278" stroke="#f3f4f6"/>
<text x="374.4" y="300" text-anchor="middle" class="small">6</text>
<line x1="435.6" y1="36" x2="435.6" y2="278" stroke="#f3f4f6"/>
<text x="435.6" y="300" text-anchor="middle" class="small">7</text>
<line x1="496.9" y1="36" x2="496.9" y2="278" stroke="#f3f4f6"/>
<text x="496.9" y="300" text-anchor="middle" class="small">8</text>
<line x1="558.2" y1="36" x2="558.2" y2="278" stroke="#f3f4f6"/>
<text x="558.2" y="300" text-anchor="middle" class="small">9</text>
<line x1="619.5" y1="36" x2="619.5" y2="278" stroke="#f3f4f6"/>
<text x="619.5" y="300" text-anchor="middle" class="small">10</text>
<line x1="680.7" y1="36" x2="680.7" y2="278" stroke="#f3f4f6"/>
<text x="680.7" y="300" text-anchor="middle" class="small">11</text>
<line x1="742.0" y1="36" x2="742.0" y2="278" stroke="#f3f4f6"/>
<text x="742.0" y="300" text-anchor="middle" class="small">12</text>
<polyline fill="none" stroke="#2563eb" stroke-width="2.5" points="68.0,278.0 129.3,278.0 190.5,278.0 251.8,274.5 313.1,268.5 374.4,255.8 435.6,238.6 496.9,218.2 558.2,195.7 619.5,171.5 680.7,144.7 742.0,117.7"/>
<circle cx="68.0" cy="278.0" r="3.5" fill="#2563eb"/>
<circle cx="129.3" cy="278.0" r="3.5" fill="#2563eb"/>
<circle cx="190.5" cy="278.0" r="3.5" fill="#2563eb"/>
<circle cx="251.8" cy="274.5" r="3.5" fill="#2563eb"/>
<circle cx="313.1" cy="268.5" r="3.5" fill="#2563eb"/>
<circle cx="374.4" cy="255.8" r="3.5" fill="#2563eb"/>
<circle cx="435.6" cy="238.6" r="3.5" fill="#2563eb"/>
<circle cx="496.9" cy="218.2" r="3.5" fill="#2563eb"/>
<circle cx="558.2" cy="195.7" r="3.5" fill="#2563eb"/>
<circle cx="619.5" cy="171.5" r="3.5" fill="#2563eb"/>
<circle cx="680.7" cy="144.7" r="3.5" fill="#2563eb"/>
<circle cx="742.0" cy="117.7" r="3.5" fill="#2563eb"/>
<polyline fill="none" stroke="#ea580c" stroke-width="2.5" points="68.0,277.4 129.3,277.4 190.5,277.4 251.8,272.6 313.1,265.5 374.4,252.5 435.6,235.3 496.9,215.2 558.2,193.0 619.5,169.1 680.7,142.6 742.0,115.8"/>
<circle cx="68.0" cy="277.4" r="3.5" fill="#ea580c"/>
<circle cx="129.3" cy="277.4" r="3.5" fill="#ea580c"/>
<circle cx="190.5" cy="277.4" r="3.5" fill="#ea580c"/>
<circle cx="251.8" cy="272.6" r="3.5" fill="#ea580c"/>
<circle cx="313.1" cy="265.5" r="3.5" fill="#ea580c"/>
<circle cx="374.4" cy="252.5" r="3.5" fill="#ea580c"/>
<circle cx="435.6" cy="235.3" r="3.5" fill="#ea580c"/>
<circle cx="496.9" cy="215.2" r="3.5" fill="#ea580c"/>
<circle cx="558.2" cy="193.0" r="3.5" fill="#ea580c"/>
<circle cx="619.5" cy="169.1" r="3.5" fill="#ea580c"/>
<circle cx="680.7" cy="142.6" r="3.5" fill="#ea580c"/>
<circle cx="742.0" cy="115.8" r="3.5" fill="#ea580c"/>
<polyline fill="none" stroke="#16a34a" stroke-width="2.5" points="68.0,277.4 129.3,276.7 190.5,272.6 251.8,258.6 313.1,239.8 374.4,215.4 435.6,189.8 496.9,162.0 558.2,132.7 619.5,102.1 680.7,69.9 742.0,36.0"/>
<circle cx="68.0" cy="277.4" r="3.5" fill="#16a34a"/>
<circle cx="129.3" cy="276.7" r="3.5" fill="#16a34a"/>
<circle cx="190.5" cy="272.6" r="3.5" fill="#16a34a"/>
<circle cx="251.8" cy="258.6" r="3.5" fill="#16a34a"/>
<circle cx="313.1" cy="239.8" r="3.5" fill="#16a34a"/>
<circle cx="374.4" cy="215.4" r="3.5" fill="#16a34a"/>
<circle cx="435.6" cy="189.8" r="3.5" fill="#16a34a"/>
<circle cx="496.9" cy="162.0" r="3.5" fill="#16a34a"/>
<circle cx="558.2" cy="132.7" r="3.5" fill="#16a34a"/>
<circle cx="619.5" cy="102.1" r="3.5" fill="#16a34a"/>
<circle cx="680.7" cy="69.9" r="3.5" fill="#16a34a"/>
<circle cx="742.0" cy="36.0" r="3.5" fill="#16a34a"/>
<line x1="590" y1="36" x2="608" y2="36" stroke="#2563eb" stroke-width="3"/>
<text x="614" y="40" class="small">lat</text>
<line x1="590" y1="54" x2="608" y2="54" stroke="#ea580c" stroke-width="3"/>
<text x="614" y="58" class="small">extlat</text>
<line x1="590" y1="72" x2="608" y2="72" stroke="#16a34a" stroke-width="3"/>
<text x="614" y="76" class="small">reslat</text>
<text x="380.0" y="314" text-anchor="middle" class="label">n elements</text>
<text x="16" y="160.0" transform="rotate(-90 16,160.0)" text-anchor="middle" class="label">MiB</text>
</svg>